HIERARCHY
ROOT ui
{
	 OFFSET 0 0 0
	 CHANNELS 3 XPosition YPosition Z Position
	 EndSite
	 {
	 OFFSET 0 -1 0
	 }
}
ROOT li
{
	 OFFSET 0 0 0
	 CHANNELS 3 XPosition YPosition Z Position
	 EndSite
	 {
	 OFFSET 0 -1 0
	 }
}
ROOT ul
{
	 OFFSET 0 0 0
	 CHANNELS 3 XPosition YPosition Z Position
	 EndSite
	 {
	 OFFSET 0 -1 0
	 }
}
ROOT ll
{
	 OFFSET 0 0 0
	 CHANNELS 3 XPosition YPosition Z Position
	 EndSite
	 {
	 OFFSET 0 -1 0
	 }
}
ROOT tt
{
	 OFFSET 0 0 0
	 CHANNELS 3 XPosition YPosition Z Position
	 EndSite
	 {
	 OFFSET 0 -1 0
	 }
}
ROOT tb
{
	 OFFSET 0 0 0
	 CHANNELS 3 XPosition YPosition Z Position
	 EndSite
	 {
	 OFFSET 0 -1 0
	 }
}
ROOT td
{
	 OFFSET 0 0 0
	 CHANNELS 3 XPosition YPosition Z Position
	 EndSite
	 {
	 OFFSET 0 -1 0
	 }
}
ROOT v
{
	 OFFSET 0 0 0
	 CHANNELS 3 XPosition YPosition Z Position
	 EndSite
	 {
	 OFFSET 0 -1 0
	 }
}
ROOT bn
{
	 OFFSET 0 0 0
	 CHANNELS 3 XPosition YPosition Z Position
	 EndSite
	 {
	 OFFSET 0 -1 0
	 }
}
MOTION
Frames: 10
Frame Time: 0.002
-0.013088641166687011	4.070070087909698E-4	0		0.4775004577636719	-2.389733642578125	0		-0.9456533813476562	-0.05006119537353516	0		-0.3896626892089844	-2.596878662109375	0		1.65502099609375	-0.8776934814453125	0		3.145963134765625	-0.40191180419921874	0		4.32056005859375	-0.15390779113769532	0		5.9389580078125	0.46357815551757814	0		-0.2570892028808594	5.87020849609375	0		
0.009647326469421387	-0.0033952360153198242	0		0.5291486206054687	-2.39684423828125	0		-0.9577835083007813	-0.040483787536621095	0		-0.4390653076171875	-2.60793408203125	0		1.65273779296875	-0.8812783203125	0		3.114579833984375	-0.41623358154296874	0		4.3144169921875	-0.14551426696777345	0		5.93874658203125	0.46387298583984377	0		-0.2561848754882812	5.86963720703125	0		
-0.013542830467224121	0.0012852109670639037	0		0.4868494567871094	-2.396981201171875	0		-0.9480277099609375	-0.04111834335327148	0		-0.40157925415039064	-2.62886767578125	0		1.641330322265625	-0.8957603759765626	0		3.130120849609375	-0.43702847290039065	0		4.301140625	-0.14904156494140625	0		5.94751513671875	0.46307977294921876	0		-0.24019212341308593	5.87792333984375	0		
0.013213156700134277	0.0014639179706573487	0		0.5264812622070313	-2.402948974609375	0		-0.9501785888671875	-0.0316174488067627	0		-0.46999917602539065	-2.6387001953125	0		1.644105712890625	-0.8913773193359374	0		3.148999755859375	-0.42384893798828127	0		4.31099658203125	-0.13879931640625	0		5.94645947265625	0.480392578125	0		-0.24028353881835937	5.8783857421875	0		
-0.014037670135498047	0.00221042799949646	0		0.5531315307617187	-2.405773681640625	0		-0.9253401489257812	-0.02238222885131836	0		-0.410522216796875	-2.657837890625	0		1.6289229736328126	-0.8817992553710937	0		3.116407470703125	-0.4551339416503906	0		4.31862646484375	-0.14952983093261718	0		5.9290556640625	0.4648761901855469	0		-0.28952908325195315	5.8643671875	0		
0.012699639320373535	0.002410767078399658	0		0.5299271850585937	-2.393072509765625	0		-0.9355911865234375	-0.020772922515869142	0		-0.4338994140625	-2.6611083984375	0		1.642552978515625	-0.8895107421875	0		3.147996826171875	-0.4680738525390625	0		4.3162783203125	-0.15715226745605468	0		5.93780712890625	0.46509356689453124	0		-0.28962332153320314	5.86485498046875	0		
-0.01759925651550293	2.120250016450882E-4	0		0.5463880004882813	-2.411773681640625	0		-0.9418090209960938	-0.015192937850952149	0		-0.39950985717773435	-2.685967529296875	0		1.6202374267578126	-0.89084130859375	0		3.148422607421875	-0.4956868286132812	0		4.298046875	-0.1526046142578125	0		5.9414580078125	0.4563650207519531	0		-0.2546777954101562	5.86898974609375	0		
0.008112686157226563	-5.588449835777282E-4	0		0.5460369262695313	-2.41129150390625	0		-0.9700009155273438	-0.006373268127441406	0		-0.4418984069824219	-2.688018310546875	0		1.6368804931640626	-0.8955690307617188	0		3.131183837890625	-0.49010845947265624	0		4.31462939453125	-0.1654150390625	0		5.94627880859375	0.46462744140625	0		-0.2888221435546875	5.8648515625	0		
-0.015125205993652344	0.004188048839569092	0		0.5477002563476563	-2.408822509765625	0		-0.9411478271484375	0.006861029148101806	0		-0.4473270874023437	-2.693444580078125	0		1.5996358642578126	-0.888727783203125	0		3.13946923828125	-0.5297926025390625	0		4.320384765625	-0.16110784912109374	0		5.9460126953125	0.46494570922851564	0		-0.2208055877685547	5.87565673828125	0		
0.011590904235839843	0.0044187970161437985	0		0.5203734741210938	-2.405044189453125	0		-0.9414301147460937	0.007404325008392334	0		-0.4208230895996094	-2.70519921875	0		1.636260009765625	-0.8946531982421875	0		3.166105224609375	-0.5356625366210938	0		4.32391845703125	-0.1777740020751953	0		5.94066162109375	0.4573212890625	0		-0.2539715118408203	5.8695234375	0		
